<svg
  aria-hidden="true"
  style="position:absolute;width:0;height:0;overflow:hidden"
  xmlns="http://www.w3.org/2000/svg"
><defs><symbol id="icon-film" viewBox="0 0 32 32"><path
        fill="none"
        stroke="#818181"
        style="stroke:var(--color1, #818181)"
        stroke-linejoin="round"
        stroke-linecap="round"
        stroke-width="2.667"
        d="M26.427 2.667H5.574a2.907 2.907 0 0 0-2.907 2.907v20.853a2.907 2.907 0 0 0 2.907 2.907h20.853a2.907 2.907 0 0 0 2.907-2.907V5.574a2.907 2.907 0 0 0-2.907-2.907zM9.333 2.667v26.667M22.667 2.667v26.667M2.667 16h26.667M2.667 9.333h6.667M2.667 22.667h6.667M22.667 22.667h6.667M22.667 9.333h6.667"
      /></symbol><symbol id="icon-search" viewBox="0 0 32 32"><path
        d="m31.008 27.231-7.58-6.447c-.784-.705-1.622-1.029-2.299-.998a11.954 11.954 0 0 0 2.87-7.787c0-6.627-5.373-12-12-12s-12 5.373-12 12 5.373 12 12 12c2.972 0 5.691-1.081 7.787-2.87-.031.677.293 1.515.998 2.299l6.447 7.58c1.104 1.226 2.907 1.33 4.007.23s.997-2.903-.23-4.007zM12 20a8 8 0 1 1 0-16 8 8 0 0 1 0 16z"
      /></symbol><symbol id="icon-heart" viewBox="0 0 32 32"><path
        d="M23.6 2c-3.363 0-6.258 2.736-7.599 5.594C14.659 4.736 11.764 2 8.4 2 3.763 2 0 5.764 0 10.401c0 9.433 9.516 11.906 16.001 21.232C22.131 22.365 32 19.533 32 10.401 32 5.764 28.237 2 23.6 2z"
      /></symbol><symbol id="icon-close" viewBox="0 0 32 32"><path
        d="M16 0C7.163 0 0 7.163 0 16s7.163 16 16 16 16-7.163 16-16S24.837 0 16 0zm0 29C8.82 29 3 23.18 3 16S8.82 3 16 3s13 5.82 13 13-5.82 13-13 13z"
      /><path d="m21 8-5 5-5-5-3 3 5 5-5 5 3 3 5-5 5 5 3-3-5-5 5-5z" /></symbol><symbol
      id="icon-circle-up"
      viewBox="0 0 32 32"
    ><path
        d="M0 16c0 8.837 7.163 16 16 16s16-7.163 16-16S24.837 0 16 0 0 7.163 0 16zm29 0c0 7.18-5.82 13-13 13S3 23.18 3 16 8.82 3 16 3s13 5.82 13 13z"
      /><path
        d="m22.086 20.914 2.829-2.829-8.914-8.914-8.914 8.914 2.828 2.828 6.086-6.086z"
      /></symbol><symbol id="icon-arrow-left"><path
        d="M12.6666 8H3.33325"
        stroke="black"
        stroke-width="1.33333"
        stroke-linecap="round"
        stroke-linejoin="round"
      />
<path
        d="M7.99992 12.6667L3.33325 8.00004L7.99992 3.33337"
        stroke="black"
        stroke-width="1.33333"
        stroke-linecap="round"
        stroke-linejoin="round"
      />
      </symbol><symbol id="icon-arrow-right" fill="none"><path d="M3.33341 8H12.6667" />
<path d="M8.00008 12.6667L12.6667 8.00004L8.00008 3.33337" />
      </symbol>
      <symbol id="icon-close" viewBox="0 0 32 32">
      <path
        stroke-linejoin="miter"
        stroke-linecap="butt"
        stroke-miterlimit="4"
        stroke-width="2.1333"
        d="M8.533 8.533l14.933 14.933"
      />
      <path
        stroke-linejoin="miter"
        stroke-linecap="butt"
        stroke-miterlimit="4"
        stroke-width="2.1333"
        d="M8.533 23.467l14.933-14.933"
      />
      </symbol>
      <symbol id="icon-close_40px" viewBox="0 0 32 32">
        <path d="M23.739 10.306l-1.504-1.504-5.965 5.964-5.964-5.964-1.504 1.504 5.964 5.964-5.964 5.965 1.504 1.504 5.964-5.965 5.965 5.965 1.504-1.504-5.965-5.965 5.965-5.964z"></path>
      </symbol>
      <symbol id="instagram" viewBox="0 0 32 32">
        <path d="M15.7 7.68a7.92 7.92 0 0 0 0 15.85 7.92 7.92 0 0 0 0-15.85zm0 13.08a5.15 5.15 0 0 1-5.14-5.16 5.09 5.09 0 0 1 5.1-5.08H15.72c2.8 0 5.07 2.27 5.07 5.07v.02a5.1 5.1 0 0 1-5.08 5.15zM25.75 7.43c0-1.04-.83-1.86-1.86-1.86-1.04 0-1.85.82-1.85 1.86a1.86 1.86 0 0 0 3.71 0zm5.22 1.85c-.13-2.48-.7-4.67-2.48-6.46-1.76-1.8-3.99-2.34-6.45-2.5C19.47.2 11.84.2 9.3.33c-2.48.15-4.6.7-6.46 2.49C1.05 4.59.5 6.8.37 9.28a187.4 187.4 0 0 0 0 12.73c.14 2.46.68 4.6 2.48 6.46 1.85 1.78 3.98 2.34 6.46 2.47 2.55.14 10.18.14 12.73 0 2.46-.13 4.67-.7 6.45-2.47 1.79-1.85 2.35-4 2.48-6.46.14-2.57.14-10.18 0-12.73zm-3.3 15.4a5.14 5.14 0 0 1-2.88 2.96c-2.08.83-6.88.62-9.09.62-2.27 0-7.07.21-9.07-.62a5.25 5.25 0 0 1-2.95-2.93l-.01-.03c-.82-1.99-.61-6.8-.61-9.08 0-2.2-.21-7 .6-9.07a5.34 5.34 0 0 1 2.97-2.88c2-.83 6.8-.64 9.07-.64 2.21 0 7.03-.2 9.07.64a5.05 5.05 0 0 1 2.89 2.88c.83 2.06.64 6.88.64 9.07 0 2.28.19 7.1-.64 9.08z"/>
      </symbol>
      <symbol id="telegram" viewBox="0 0 32 32">
        <path d="M32 0 0 18l10.23 3.79L26 7 14 23.19h.01H14V32l5.74-6.7L27 28l5-28z"/>
      </symbol>
      <symbol id="github" viewBox="0 0 32 32">
        <path d="M16 .4a16 16 0 0 0-5.06 31.18c.8.14 1.1-.35 1.1-.77L12 27.83c-4.45.97-5.39-1.89-5.39-1.89-.73-1.85-1.77-2.34-1.77-2.34-1.46-1 .1-.97.1-.97 1.61.1 2.46 1.64 2.46 1.64 1.43 2.45 3.74 1.74 4.65 1.33a3.4 3.4 0 0 1 1.02-2.14c-3.55-.4-7.29-1.77-7.29-7.9a6.2 6.2 0 0 1 1.65-4.3c-.17-.4-.71-2.03.15-4.23 0 0 1.35-.43 4.4 1.64a15.35 15.35 0 0 1 8.02 0c3.05-2.07 4.4-1.64 4.4-1.64.86 2.2.32 3.83.15 4.23a6.18 6.18 0 0 1 1.65 4.3c0 6.14-3.75 7.5-7.3 7.9.57.49 1.08 1.46 1.08 2.96l-.02 4.39c0 .42.29.92 1.1.76A16 16 0 0 0 16 .4z"/>
      </symbol>
      <symbol id="linkedin" viewBox="0 0 32 32">
        <path d="M12 12h5.54v2.84h.07c.77-1.38 2.66-2.84 5.47-2.84 5.84 0 6.92 3.64 6.92 8.37V30h-5.77v-8.54c0-2.04-.04-4.66-3-4.66-3 0-3.46 2.22-3.46 4.51V30H12V12zM2 12h6v18H2V12zM8 7a3 3 0 1 1-6 0 3 3 0 0 1 6 0z"/>
      </symbol>
      </defs>
      </svg>
